<?xml version="1.0" encoding="UTF-8"?>
<!DOCTYPE svg PUBLIC "-//W3C//DTD SVG 1.1//EN" "http://www.w3.org/Graphics/SVG/1.1/DTD/svg11.dtd">
<!-- Creator: CorelDRAW 2020 (64 Bit) -->
<svg xmlns="http://www.w3.org/2000/svg" xml:space="preserve" width="210mm" height="297mm" version="1.1" style="shape-rendering:geometricPrecision; text-rendering:geometricPrecision; image-rendering:optimizeQuality; fill-rule:evenodd; clip-rule:evenodd"
viewBox="0 0 21000 29700"
 xmlns:xlink="http://www.w3.org/1999/xlink"
 xmlns:xodm="http://www.corel.com/coreldraw/odm/2003">
 <defs>
  <style type="text/css">
   <![CDATA[
    .fil9 {fill:#A42B54}
    .fil11 {fill:#A63156}
    .fil4 {fill:#AA2E56}
    .fil0 {fill:#AC2D56}
    .fil5 {fill:#EB8B43}
    .fil2 {fill:#F2863A}
    .fil12 {fill:#F3F2ED}
    .fil1 {fill:#F58635}
    .fil3 {fill:#F6F6F5}
    .fil7 {fill:#F8F6F7}
    .fil10 {fill:#F9F6F5}
    .fil8 {fill:#FAF6FA}
    .fil6 {fill:#FAFAFA}
    .fil13 {fill:#FBF2F3}
   ]]>
  </style>
 </defs>
 <g id="Camada_x0020_1">
  <metadata id="CorelCorpID_0Corel-Layer"/>
  <g id="_2616947928192">
   <path class="fil0" d="M1696.73 1804.44c-7.41,9.87 -9.21,13.82 -18.72,23.3 -2.08,2.07 -21.61,19.9 -27.79,13.28 -2.84,-3.04 3.48,-11.05 5.71,-13.44 9.04,-9.67 28.68,-22.21 40.8,-23.14zm45.85 -0.98c2.45,-11.73 20.53,-28.76 28.53,-20.91 6.27,6.16 -2.88,13.86 -6.78,16.01 -7.54,4.16 -11.83,5.02 -21.75,4.9zm144.26 20.02c-2.4,3.84 -8.9,8.32 -14.57,10 -10.23,3.03 -10.93,-4.86 -10.24,-13.34 1.43,-17.68 18.09,-41.18 30.8,-42.76 3.43,-0.42 6.91,0.59 7.47,3.84 0.62,3.55 -2.93,5.07 -5.07,7 -6.33,5.67 -11.31,16.06 -11.22,25.32 0.06,5.99 2.03,6.4 2.83,9.94zm200.21 -62.83c-0.9,-1.19 -1.03,-0.48 -0.73,-4.84l-7.4 8.41c-3.53,4.51 -4.2,3.35 -5.64,10.23 -1.43,6.81 -1.41,6.1 -5.13,10.89 -2,2.56 -5.76,7.37 -7.49,8.34 5.24,-18.1 27.34,-63.1 42.04,-66.18 -0.34,10.65 -10.31,27.71 -15.65,33.15zm-282.23 33.14c1.64,-8.88 12.37,-29.61 16.8,-37.4l10.62 -16.56c3,-4.26 9.47,-11.9 14.44,-12.31 -0.63,19.37 -25.48,46.58 -38.04,62.35l-3.82 3.92zm-87.14 -111.9c-0.75,-15.1 30.89,-32.24 47.15,-36.25 -1.76,18.82 -32.96,45.62 -47.15,36.25zm112.84 -16.62c-5.03,4.25 -7.15,7.36 -14.61,9.72 -9.52,3.01 -11.25,-4.77 -10.43,-12.53 1.94,-18.36 16.89,-40.27 29.94,-43.5 3.35,-0.83 7.73,0.02 8.27,3.58 0.63,4.23 -2.51,5.15 -4.83,7.13 -3.65,3.12 -7.38,9.05 -9.57,15.03 -4.03,10.99 -0.49,14.98 1.23,20.57zm110.7 -0.34c-5.58,7.37 -27,21.04 -24.99,-2.36 1.55,-18.04 17.17,-40.72 29.98,-43.61 3.82,-0.87 7.72,0.31 8.28,3.6 1.13,6.63 -8.19,4.31 -14.4,22.16 -4.3,12.37 -0.21,15.68 1.13,20.21zm-65.73 -30.1c2.01,-11.3 27.81,-64.44 41.81,-65.72 -0.71,12.37 -11.36,27.87 -17.73,36.38 -3.3,4.42 -20.54,27.74 -24.08,29.34zm-211.36 -45.52c-0.78,7.18 3.79,14.62 8.29,17.26l1.85 -1.92c2.09,-20.01 28.55,-33.33 45.99,-37.58 -1.49,4.19 -5.85,10.93 -8.65,15.66 -21.71,36.71 -36.71,76.17 -44.56,119.46 -26.35,3.03 -58.55,14.76 -68.82,38.48 -4.31,9.95 -1.41,20.45 6.69,24.6 1.31,-6.92 4.08,-15.1 10.08,-17.88 9.98,-4.63 8.1,-9.16 14.38,-12.75 6.1,-3.47 16.55,-8.47 23.33,-9.45l-8.99 15.83c-14.9,27.07 -28.46,54.71 -36.83,84.66 -1.82,6.55 -3.31,12.9 -4.87,19.59 -1.09,4.71 -4.74,17.55 -1.05,19.78 6.83,1.25 12.22,-7.62 14.38,-13.13 2.62,-6.67 4.54,-13.82 6.97,-20.82 4.59,-13.23 10.62,-27.25 16.37,-39.38 8.14,-17.19 19.32,-38.2 30.03,-53.55l11.31 -16.47c18.54,0.68 28.77,4.27 33.14,19.83 3.83,13.66 -0.13,31.65 -5.59,42.84 -5.86,12.02 -4.18,10.05 -13.12,12.54 -18.37,5.11 -37.83,15.02 -51.49,26.31 -5.06,4.17 -23.62,21.1 -14.53,32.94 7.92,10.31 31.75,-1.12 38.71,-5.37 19.21,-11.74 41.27,-30.8 52.33,-51.05l7.87 -0.58c-0.88,5.26 -7.2,14.21 -7.84,29.6 -1.28,30.68 31.68,40.56 62.86,4.77 0.52,6.14 -0.42,15.05 4.39,18.88 4.73,3.76 13.43,0.61 17.71,-1.73 13.39,-7.31 17.1,-16.17 23.19,-22.52 2.71,0.21 4.85,0.71 7.93,0.48 2.69,-0.2 4.09,-1.03 6.52,-1.11 -0.18,7.95 -0.9,15.17 4.13,21.14 4.67,5.54 11.01,6.95 19.5,4.28 12.21,-3.85 21.94,-15.6 28.26,-24.31 12.96,-2.05 15.22,4.59 30.28,-16.01 4.64,-6.35 14.82,-22.48 17.47,-28.97l10.38 0.54c-1.05,2.4 -6.73,8.42 -9.32,11.83 -7.72,10.12 -17.85,27.05 -20.24,40.07 -2.89,15.68 3.1,23.38 17.19,15.28 8.49,-4.88 15.6,-11.6 22.41,-17.99 0.01,6.13 -1.71,13.5 1.43,18.71 7.61,12.67 30.51,-15.86 35.84,-19.55 -0.92,5.82 -3.43,13.31 -0.86,19.02 5.85,13 35.68,-17.87 38.87,-19.63 -0.91,11.39 -2.75,17.99 3.75,23.96 8.25,-1.49 14.25,-12.35 19.32,-16.49 0.93,-2.46 10.01,-13.58 11.96,-15.88 4.29,-5.06 8.05,-10.02 13.02,-13.67 -5.24,7.92 -10,17.79 -12.72,27.17 -4.98,17.12 3.39,21.52 16.3,13.68 7.31,-4.44 40.5,-30.89 37.48,-41.6 -4.81,-1.33 -6.81,1.28 -9.48,4.54 -4.68,5.7 -16.53,17.28 -24.55,16.86 -1.89,-6.92 15.4,-33.15 20.07,-40.52 9.34,-14.72 3.83,-22.68 -11.79,-11.13 -10.97,8.11 -31.22,34.24 -33.17,35.36 0.61,-4.08 5.31,-9.33 5.95,-12.35 -5.77,4.67 -11.34,11.03 -14.22,17.76l-2.3 5.67c-1.04,1.78 -0.26,0.69 -1.32,1.61 -0.52,-4.28 -0.17,-10.18 0.5,-14.32 0.83,-5.14 2.64,-5.26 5.56,-8.37l20.5 -22.62c12.63,-13.02 36.11,-43.06 39.32,-59.46 3.08,-15.77 -14.61,-17.39 -30.82,-1.05 -2.94,-0.75 2.39,1.31 -0.92,-0.68 -1.48,-0.88 -1.34,-0.63 -5.12,2.61 -8.74,7.5 -3.01,7.53 -8.64,15.24 -15.24,20.9 -26.35,46.67 -33.43,72.03 -1.81,6.48 -6.04,9.11 -10.42,12.82 -2.81,2.36 -7.25,5.47 -11.11,6.91 -12.6,4.69 7.32,-27.59 7.68,-31.26 -8.33,-2.48 -10.21,-1.82 -14.42,3.86 -3.65,4.91 -25.79,32.91 -32.28,28.34 -8.83,-6.23 17.52,-53.66 36.56,-50 4.71,0.9 3.97,4.34 3.78,8.89 3.79,0.51 6.62,1.09 9.96,-1.72 8.9,-7.48 5.71,-20.31 -5.03,-23.11 -14.4,-3.75 -28.44,7.37 -35.43,13.81 -16.63,15.33 -20.17,31.59 -25.62,37.42 -3.91,4.18 -8.82,8.2 -13.82,11.34 -23.82,14.96 5.17,-33.98 8.98,-40.03 2.58,-4.08 6.87,-8.1 8.92,-11.85 -1.09,-3.73 -4.13,-6.91 -8.94,-4.92 -5.45,2.25 -7.22,2.68 -12.7,1.14 0.6,-5.46 6.06,-10.99 1.93,-17.15 -3.1,-4.62 -9.31,-5.23 -14.36,-1.71 -3.78,2.64 -7.42,7.03 -8.44,12.85 -1.5,8.63 2.04,11.19 6,15.1 -3.15,10.92 -14.72,24.69 -21.24,33.28 -4.1,5.43 -13.77,8.55 -11.89,2.68 1.54,-4.79 4.41,-9.5 6.09,-14.43 1.04,-3.05 2.19,-6.55 1.81,-10.26 -0.64,-6.46 -0.02,-3.14 0.92,-8.83 3.03,-18.18 -19.89,-14.76 -29.44,-10.32 -10,4.64 -19.39,14.45 -24.6,22.52 -7.37,11.4 -11.21,28.33 -21.96,23.24 -0.36,-1.17 2.46,-6.58 3.28,-8.73 1.19,-3.12 2.25,-6.41 2.94,-10.35 3.38,-19.39 -14.64,-19.32 -21.34,2.53 -3.02,9.85 -1.78,13.48 1.85,21.13 -9.23,12.84 -24.02,16.02 -20.41,-8.57 1.1,-7.46 1.45,-6.11 5.51,-10.32 15.69,-16.25 29.86,-32.95 43.63,-51.22 4.39,-5.83 8.8,-12.87 12.22,-19.64 3.05,-6.05 8.62,-18.08 0.62,-22.78 -7.72,-4.53 -17.51,2.07 -22.08,5.97 -20.32,17.35 -38.05,47.94 -48.34,78.37 -2.5,7.4 -3.93,17.24 -8.88,22.94 -4.46,5.14 -10.52,10.63 -16.82,14.38 -5.81,3.45 -15.91,8.6 -23.89,4.38 -6.26,-3.32 -5.51,-17.65 -2.6,-24.72 0.96,-1.04 8.54,0.34 10.04,0.36 10.3,0.08 18.91,-2.74 26.87,-8.06 7.45,-4.99 19.08,-16.95 11.6,-30.79 -5.54,-10.26 -20.3,-12.98 -32.58,-6.1 -8.98,5.03 -17.45,14.22 -22.92,23.29l-7.46 -0.22c8.94,-16.31 18.34,-42.46 8.96,-63.88 -10.21,-23.31 -34.57,-24.72 -54.71,-25.59 5.97,-9.1 9.84,-25.62 14.26,-37.25 11.52,-30.31 26.22,-58.64 43.87,-85.51 2.27,-3.44 8,-12.14 10.8,-14.96 12.27,-1.1 25.15,1.9 28.95,10.75 4.41,10.29 -2.61,20.11 -9.55,26.44 -12.49,11.4 -28.1,10.29 -42.18,17.46 -3.37,1.72 -9.75,4.82 -8.86,10.15 11.17,10.27 41.73,-14.69 47.75,7.38 -0.14,0.11 -0.35,0.23 -0.46,0.29 -4.02,2.18 -9.31,3.02 -13.6,4.43 -18.13,5.96 -44.08,20.76 -52.77,38.07 -4.63,9.24 -5.82,21.03 7.15,22.71 23.49,3.03 59.05,-20.43 72.52,-35.91 11.71,-13.46 9.01,-15.66 11.82,-24.24l7.87 -0.25c-4.11,8.78 -7.75,14.03 -10.36,25.16 -2.61,11.11 -0.59,22.19 7.02,27.26 15.71,10.46 39.48,-14.12 44.27,-23.62 3.2,0.11 5.52,0.8 9.18,0.37 3.06,-0.35 4.53,-1.52 7.31,-1.74 -8.21,52.05 30.46,14.46 41.65,4.67 0.78,8.51 1.1,13.98 6.5,18.88 14.23,12.9 40.39,-9.88 46.09,-22.15 10.26,0.02 17.83,2.02 27.75,-12.21 2.82,-4.05 6.27,-7.32 9.37,-11.2 3.05,-3.83 5.95,-7.76 9.37,-10.63 2.91,3.51 4.95,11.29 5.53,16.19 4.17,34.73 -29.46,35.25 -22.44,19.34 -10.54,-2.13 -21.15,14.56 -12.58,22.58 16.62,15.55 43.95,-6.13 54.24,-18.66 4.4,-5.36 17.82,-17.91 16.04,-24.42 -8.29,-3.46 -13.87,12.39 -20.32,15.65 0.57,-9.08 2.89,-15.03 2.01,-25.2 -1.24,-14.41 -2.85,-13.14 -4.95,-21.74 -0.64,-2.66 2.21,-5.68 3.8,-9.36 1.24,-2.87 2.64,-7.11 1.31,-10.94 -4.1,-11.8 -24.71,5.06 -27.53,19.78 -0.98,5.09 1.58,7.87 -0.22,10.43 -3.18,4.52 -8.89,10.02 -12.74,14.46 -2.07,2.4 -3.49,4.25 -6.04,7.26l-6.01 7.25c-1.75,1.8 -6.73,4.11 -9.74,1.89 -1.08,-1.08 1.7,-5.11 3.31,-9 6.68,-16.07 3.21,-11.69 4.12,-21.26 0.32,-3.38 2.76,-5.78 1.13,-10.93 -5.32,-16.83 -41.52,-9.14 -60.55,29.96 -4.88,10.02 -4.44,8.93 -11.94,15.25 -4.19,3.53 -11.59,9.02 -17.84,8.62 -4.07,-5.33 -4.19,-13.87 -2.21,-20.64 0.87,-2.96 8.88,-10.39 11.39,-13.21 12.68,-14.26 72.64,-77.82 47.85,-87.41 -11.65,-4.5 -27.28,13.31 -30.88,17.49 -16.44,19.16 -26.45,38.58 -35.68,62.52 -2.9,7.52 -6.35,24.04 -10.03,27.09 -0.89,0.74 -9.03,4.87 -9.45,0.88l-0.05 -1c0.07,-0.56 0.3,-0.96 0.51,-1.44 3.05,-6.85 7.31,-13.44 7.4,-21.32 0.04,-3.59 -1.02,-4.39 -0.16,-7.35 0.78,-2.67 1.49,-3.16 1.36,-6.57 -0.59,-16.65 -26.85,-13.13 -42.96,2.08 -11.08,10.47 -3.88,8.23 -22,8.54 -1.12,-1.86 -1.49,-4.44 -2.72,-6.61 -4.16,-7.32 -7.43,-7.67 -14.35,-11.99 1.55,-1.33 3.6,-1.9 5.91,-3.17 5.53,-3.04 10.73,-7.05 15.12,-11.46 6.18,-6.2 11.11,-15.35 9.84,-25.74 -6.07,-50.05 -127.51,-35.56 -138.19,15.84z"/>
   <path class="fil1" d="M1466.76 1617.91c2.93,0.72 103.93,70.89 116.46,79.15l0.43 41.49c-17.89,-1.27 -84.07,-58.73 -116.51,-73.28l-0.38 -47.36zm0.15 -8.05c-0.21,-1.79 0.23,-50.01 2.06,-46.12l3.68 1.07c18.71,11.58 35.89,24.04 53.97,36.22 3.57,2.4 55.23,37.11 56.73,40.01 0.98,7.96 0.01,20.7 -0.04,29.19 -0.09,16.51 2.07,15.73 -10.48,9.3l-17.67 -11.41c-6.13,-4.24 -11.04,-7.19 -17.34,-11.84l-34.47 -23.96c-6.48,-4.42 -10.98,-7.27 -17.56,-11.63l-18.88 -10.83zm207.36 -5.21l-1.85 1.92c-4.5,-2.64 -9.07,-10.08 -8.29,-17.26 -0.96,2.94 -1.58,4.88 -2.31,7.96 -3.7,-0.65 -7.37,-6.78 -8.23,-10.34 -1.55,-6.44 1.23,-11.27 2.32,-16.45 -4.55,1.55 -36.19,36.32 -39.84,40.09 -6.15,6.35 -12.86,15.35 -24.56,15.48 -9.1,0.11 -21.78,-7.48 -28.88,-11.86 -4.06,-2.51 -7.67,-4.89 -12.08,-7.82 -23.46,-15.56 -47.72,-33.65 -71.09,-49.03 -1.86,-1.22 -4.71,-2.22 -6.09,-3.85 -1.18,-1.39 -3.03,-5.25 -3,-7.02 1.23,-0.68 10.08,-3.41 12.09,-3.81 13.15,-2.63 26.72,1.9 31.35,0.91 4.04,-0.87 6.62,-6.96 5.69,-10.3 -3.19,-5.82 -40.16,-3.43 -48.27,-1.91 -8.13,1.53 -12.52,4.58 -16.28,10.94 -3.29,5.57 -4.88,13.92 -5.23,21.78 -1.07,23.97 1.23,53.2 0.59,80.28 -0.25,10.33 -1.09,16.49 4.74,22.35 7.34,7.39 21.82,14.8 31.55,22.19 14.59,11.09 32.68,23.41 48.07,33.6 15.27,10.12 34.9,27.14 53.1,28.92 -1.42,-6.15 -5.68,-11.62 1.46,-23.69 8.48,-14.32 27.63,-25.31 43.7,-30.04 4.3,-1.26 8.4,-1.67 12.57,-2.81 3.36,-0.92 8.86,-15.28 10.4,-18.66 7.28,-15.99 4.77,-5.62 7.78,-22.03 2.14,-11.68 10.1,-43.75 10.59,-49.54z"/>
   <path class="fil2" d="M2060.52 1839.41c-5.07,4.14 -11.07,15 -19.32,16.49 -1.43,5.82 -18.28,27.72 -23.05,33.34 -13.65,16.05 -26.34,28.66 -42.51,41.1 -5.45,4.19 -10.71,7.86 -16.19,11.67 -8.42,5.84 -25.86,16.27 -35.28,20.42 -12.96,5.72 -25.73,11.68 -40,15.73 -48.59,13.76 -98.21,17.69 -146.54,3.16 -3.77,-1.14 -7.38,-1.87 -11.23,-2.98 -3.26,-0.94 -6.59,-2.48 -10.04,-3.63l-10.3 -3.8c-3.67,-1.43 -6.38,-2.71 -9.76,-4.15 -13.58,-5.79 -24,-12.51 -36.3,-19.44 -16.25,-9.16 -32.85,-24.02 -46.66,-36.9l-8.38 -8.8c-0.1,-0.09 -0.26,-0.21 -0.36,-0.31 -0.52,-0.47 -1.04,-0.94 -1.74,-1.63 -6.59,-6.52 -21.37,-25.4 -27.44,-34.9 -20.85,-32.63 -32.34,-61.16 -40.27,-99.04l-3.97 -24.25 -9.51 0.94c-0.85,24.27 16.09,71.89 26.3,94.01 3.06,6.63 6.54,13.21 10.26,19.62 4.23,7.28 7.45,11.98 11.62,18.25 9.06,13.62 16.01,21.67 26.5,33.2 23.94,26.31 53.02,47 86.04,63.89 17.29,8.84 35.94,15.21 54.63,20.41 38.83,10.79 81.18,10.45 120.48,3.39 37.21,-6.68 74.68,-22.84 106.07,-43.75 34.92,-23.28 66.87,-55.3 87.42,-91.72 2.41,-4.27 9.68,-15.35 9.53,-20.32z"/>
   <path class="fil2" d="M1616.72 1499.74c0.86,2.02 3.91,5.47 5.19,7.11 2.88,-0.59 11.17,-7.99 14.21,-10.24 11.03,-8.18 34.37,-23.68 46.49,-28.66 2.82,-1.16 4.83,-2.38 7.99,-3.83 49.27,-22.6 104.8,-30.91 159.41,-21.82 29.2,4.86 49.33,12.22 75.53,24.52 52.32,24.58 100.26,71.94 126.02,122.74 12.82,25.28 19.67,46.26 24.67,74.83 2.8,16.03 2.88,29.6 3.75,46.86 1.89,-0.4 7.05,-4.85 9.5,-6.52 2.42,-13.68 -4.45,-49.44 -7.32,-62.09 -6.06,-26.79 -17.48,-51.01 -30.54,-73.67 -3.94,-6.85 -9.36,-14.95 -13.98,-21.16 -40.63,-54.7 -100.58,-96.53 -167.43,-111.8 -59.14,-13.51 -119.18,-8.26 -174.01,14.49 -15.29,6.34 -29.2,13.71 -42.44,21.9 -6.5,4.01 -34.9,22.97 -37.04,27.34z"/>
   <path class="fil3" d="M1562.77 1523.28c-11.04,0.87 -19.6,2.23 -25.39,8.59 -14.93,16.38 -6.94,48.68 40.84,48.68 49.12,0 64.15,-40.85 25.87,-40.68l-4.94 0.03c5.76,-10.77 16.03,-20.56 -3.5,-30.43 -20.86,-10.55 -16.04,-7.08 -17.91,-32.39 -8.73,2.14 -15.83,10.46 -18.73,17.95 -7.27,18.76 1.82,23.36 3.76,28.25z"/>
   <path class="fil3" d="M1485.79 1620.69c6.58,4.36 11.08,7.21 17.56,11.63l34.47 23.96c6.3,4.65 11.21,7.6 17.34,11.84l17.67 11.41c12.55,6.43 10.39,7.21 10.48,-9.3 0.05,-8.49 1.02,-21.23 0.04,-29.19 -1.5,-2.9 -53.16,-37.61 -56.73,-40.01 -18.08,-12.18 -35.26,-24.64 -53.97,-36.22l-3.68 -1.07c-1.83,-3.89 -2.27,44.33 -2.06,46.12l18.88 10.83z"/>
   <path class="fil3" d="M1467.14 1665.27c32.44,14.55 98.62,72.01 116.51,73.28l-0.43 -41.49c-12.53,-8.26 -113.53,-78.43 -116.46,-79.15l0.38 47.36z"/>
   <path class="fil4" d="M1562.77 1523.28c-1.94,-4.89 -11.03,-9.49 -3.76,-28.25 2.9,-7.49 10,-15.81 18.73,-17.95 1.87,25.31 -2.95,21.84 17.91,32.39 19.53,9.87 9.26,19.66 3.5,30.43l4.94 -0.03c38.28,-0.17 23.25,40.68 -25.87,40.68 -47.78,0 -55.77,-32.3 -40.84,-48.68 5.79,-6.36 14.35,-7.72 25.39,-8.59zm-13.19 -6.96c-5.76,2.76 -18.79,4.53 -24.15,18.15 -2.24,5.69 -3.1,11.46 -2.74,18.29 0.19,3.73 1.8,16.06 3.29,18.38 3.36,5.26 21.2,11.55 29.18,13.24 21.11,4.49 52.97,5.09 68.82,-11.03 17.34,-17.63 8.17,-46.22 -6.93,-60.71 -9.7,-9.31 -11.68,-11.04 -23.47,-16.32 -1.47,-0.65 -1.06,-0.34 -2.33,-1.22l1.04 -28.79c-12.99,1.13 -25.62,6.13 -32.44,13.76 -9.01,10.09 -8.14,21.92 -10.27,36.25z"/>
   <path class="fil5" d="M1886.38 1728.89c0.41,4.5 2.28,13.36 1.03,16.33 -0.83,2 -4.95,10.66 -8.41,7.76 -4.91,-4.12 -1.38,-24.14 7.38,-24.09zm34.34 14.73c-3.62,-4.85 -2.52,-11.75 0.3,-16.56 5.82,-9.96 11.37,-3.08 13.39,-3.21 3.46,-0.22 4.08,-3.94 2.54,-6.27 -2.68,-4.03 -14.79,-4.51 -21.31,4.81 -5.03,7.19 -3.3,7.82 -4.78,16.69 -0.54,3.23 -6.5,10.61 -10.58,9.29 -2.11,-0.69 -4.31,-4.22 -4.66,-6.09 -0.44,-2.32 6.64,-16.31 8.68,-21.31 9.86,-24.16 -2.58,-26.2 -9.05,-20.31 -7.45,6.77 -7.18,16.72 -8.58,22.62 -0.81,3.41 -2.74,1.25 -6.67,3.3 -18.27,9.53 -10.94,44.09 1.09,36.28 5.09,-3.31 5.64,-9.59 8.93,-12 2.6,1.4 2.59,3.64 5.06,5.86 1.92,1.74 4.29,2.37 7.32,0.88 3.72,-1.84 6.79,-6.44 9.51,-10.05 3.26,2.71 5.93,13.56 15.02,1.39 1.66,-2.22 2.13,-3.65 3.56,-5.28 2.03,1.06 1.77,2.24 2.87,3.98 5.83,9.25 19.91,-11.64 19.32,-19.34 -4.49,-1.03 -4.44,2.69 -6.63,5.98 -0.98,1.48 -5.91,6.63 -5.83,5.28 -3.5,-1.7 -2.18,-6.35 -2.31,-12.64l-5.43 0.74c-2.8,4.38 -4.2,17.17 -11.76,15.96z"/>
   <path class="fil6" d="M1886.84 1823.48c-0.8,-3.54 -2.77,-3.95 -2.83,-9.94 -0.09,-9.26 4.89,-19.65 11.22,-25.32 2.14,-1.93 5.69,-3.45 5.07,-7 -0.56,-3.25 -4.04,-4.26 -7.47,-3.84 -12.71,1.58 -29.37,25.08 -30.8,42.76 -0.69,8.48 0.01,16.37 10.24,13.34 5.67,-1.68 12.17,-6.16 14.57,-10z"/>
   <path class="fil6" d="M1830.52 1665.27c-1.72,-5.59 -5.26,-9.58 -1.23,-20.57 2.19,-5.98 5.92,-11.91 9.57,-15.03 2.32,-1.98 5.46,-2.9 4.83,-7.13 -0.54,-3.56 -4.92,-4.41 -8.27,-3.58 -13.05,3.23 -28,25.14 -29.94,43.5 -0.82,7.76 0.91,15.54 10.43,12.53 7.46,-2.36 9.58,-5.47 14.61,-9.72z"/>
   <path class="fil6" d="M1941.22 1664.93c-1.34,-4.53 -5.43,-7.84 -1.13,-20.21 6.21,-17.85 15.53,-15.53 14.4,-22.16 -0.56,-3.29 -4.46,-4.47 -8.28,-3.6 -12.81,2.89 -28.43,25.57 -29.98,43.61 -2.01,23.4 19.41,9.73 24.99,2.36z"/>
   <path class="fil6" d="M1717.68 1681.89c14.19,9.37 45.39,-17.43 47.15,-36.25 -16.26,4.01 -47.9,21.15 -47.15,36.25z"/>
   <path class="fil6" d="M1696.73 1804.44c-12.12,0.93 -31.76,13.47 -40.8,23.14 -2.23,2.39 -8.55,10.4 -5.71,13.44 6.18,6.62 25.71,-11.21 27.79,-13.28 9.51,-9.48 11.31,-13.43 18.72,-23.3z"/>
   <path class="fil2" d="M1636.46 1532.91c0.07,1.22 1.68,7.75 3.49,8.67 2.34,1.11 7.19,0.38 10.39,0.92 22.18,3.75 16.04,10.86 14.21,17.29 11.83,-12.27 18.51,-9.01 16.39,-17.42 -0.69,-2.71 -2.72,-5.88 -4.95,-7.05 -6.11,-3.19 -30.91,-8.31 -39.53,-2.41z"/>
   <path class="fil7" d="M1875.49 1634.83c3.54,-1.6 20.78,-24.92 24.08,-29.34 6.37,-8.51 17.02,-24.01 17.73,-36.38 -14,1.28 -39.8,54.42 -41.81,65.72z"/>
   <path class="fil8" d="M1808.64 1789.87c12.56,-15.77 37.41,-42.98 38.04,-62.35 -4.97,0.41 -11.44,8.05 -14.44,12.31l-10.62 16.56c-4.43,7.79 -15.16,28.52 -16.8,37.4l3.82 -3.92z"/>
   <path class="fil4" d="M1863.64 1907.49c-5.61,-7.69 3.45,-9.11 10.03,-10 -0.28,7.36 -2.17,11.33 -10.03,10zm17.37 5.14c1.8,-4.63 0.01,-5.14 -0.24,-9.53 -0.22,-3.91 0.21,-8.01 -0.07,-11.95 -1.4,-19.41 -30.48,-8.58 -24.34,-0.12 2.77,3.81 5,-0.96 6.39,-2.59 2.39,-2.78 11.12,-4.96 10.59,3.92 -8.61,2.36 -19.5,2.58 -18.75,12.72 0.35,4.73 3.69,7.73 8.22,8.09 5.15,0.41 7.73,-1.82 11.29,-4.03 2.21,2.62 2.34,4.71 6.91,3.49z"/>
   <path class="fil9" d="M1943.4 1897.43c-0.21,3.91 -0.26,6.8 -2.52,8.75 -6.67,5.73 -13.63,-3.41 -6.52,-6.51 1.8,-0.79 6.97,-1.83 9.04,-2.24zm-17.28 -5.87c8.26,2.87 2.68,-8.45 15.89,-4.62 0.75,1.77 1.2,2.98 1.17,5.6 -8.36,1.52 -19.6,2.96 -18.83,12.52 0.38,4.6 3.66,7.82 8.11,8.11 6.08,0.41 7.76,-2.29 11.3,-4.05 1.57,1.49 5.12,7.25 7.53,2.15 0.59,-1.25 -0.9,-8.6 -0.9,-11.5 0.02,-9.31 1.38,-17.58 -8.74,-19.01 -8.09,-1.15 -18.03,2.06 -15.53,10.8z"/>
   <path class="fil4" d="M1796.92 1894.37c0.53,-10.83 11.73,-11.4 12.72,0.01l-12.72 -0.01zm9.51 4.57c6.77,0 11.55,0.91 9.94,-7.69 -2.75,-14.72 -26.87,-16.77 -26.91,7.19 -0.04,20.84 29.99,17.15 26.07,4.18 -6.23,-0.99 -4.49,4.72 -11.12,5.16 -5.34,0.36 -7.37,-3.92 -7.48,-8.79l9.5 -0.05z"/>
   <path class="fil4" d="M1714.53 1899.11c-1.63,-15.44 12.71,-16.46 14,-4.53 1.66,15.26 -12.7,16.93 -14,4.53zm21.02 1.32c4,-22.19 -24.17,-27.16 -27.83,-7.84 -4.45,23.58 24.13,28.3 27.83,7.84z"/>
   <path class="fil10" d="M2087.05 1760.65c5.34,-5.44 15.31,-22.5 15.65,-33.15 -14.7,3.08 -36.8,48.08 -42.04,66.18 1.73,-0.97 5.49,-5.78 7.49,-8.34 3.72,-4.79 3.7,-4.08 5.13,-10.89 1.44,-6.88 2.11,-5.72 5.64,-10.23l7.4 -8.41c-0.3,4.36 -0.17,3.65 0.73,4.84z"/>
   <path class="fil9" d="M1701.74 1900.26c-6.26,-1.35 -4.28,4.28 -8.6,6.29 -10.17,4.74 -12.96,-12.71 -7.47,-18.09 4.19,-4.1 7.97,-0.99 10.62,2.71 3.9,5.45 7.87,0.01 4.9,-4.91 -1.78,-2.93 -5.94,-5.46 -10.21,-5.66 -10.17,-0.5 -15.2,6.99 -15.2,17.18 0.02,23.52 32.56,16.43 25.96,2.48z"/>
   <path class="fil6" d="M1742.58 1803.46c9.92,0.12 14.21,-0.74 21.75,-4.9 3.9,-2.15 13.05,-9.85 6.78,-16.01 -8,-7.85 -26.08,9.18 -28.53,20.91z"/>
   <path class="fil4" d="M1789.62 1874.39c2.46,-6.17 -5.26,-6.59 -9.81,-5.12 -5.22,1.7 -4.9,6.39 -5.06,11.96 -2.54,0.16 -5.48,0.01 -5.23,3.23 0.19,2.42 4.63,3.2 4.64,3.17 0.09,-0.15 0.36,0.1 0.51,0.2 0.66,7.98 -1.53,19.52 1.81,25.09 8.94,0.94 4.44,-9.13 5.59,-25.69 2.6,-0.2 6.13,0.24 5.64,-3.25 -0.39,-2.77 -2.96,-2.58 -6.01,-2.76l1.32 -6.34 6.6 -0.49z"/>
   <path class="fil4" d="M1836.95 1881.23c-7.29,3.85 1.29,6.59 1.29,6.6 0.12,4.88 -0.56,18.9 1.15,22.14 2.83,5.38 16.89,3.88 13.45,-2.16 -0.88,-1.09 -2.31,-0.91 -3.3,-1.01 -2.15,-0.22 -1.07,1.04 -3.01,-0.61 -1.62,-1.56 -1.02,-5.47 -1.03,-9.07 0,-3.31 -0.1,-6.6 0.21,-9.9 7.88,-0.49 7.76,-5.42 -0.07,-6.06 -0.35,-5.9 1.55,-11.49 -5.47,-11.12 -2.62,3.27 -1.89,5.28 -1.87,10.49 -1.16,0.85 -0.4,0.2 -1.35,0.7z"/>
   <path class="fil4" d="M1907.33 1883.54c-4.99,-3.5 -8.79,-4.83 -11.96,1.13l-2.17 -3.32c-1.36,-1.03 -2.76,-0.57 -4.11,-0.32 -1.62,3.64 -1.31,5.56 -1.31,10.12 0,5.85 -1.23,17.22 1.72,21.64 7.15,1.29 5.43,-5.25 5.43,-11.03 0,-20.42 6.22,-11.88 11.87,-13.83l0.53 -4.39z"/>
   <path class="fil3" d="M1714.53 1899.11c1.3,12.4 15.66,10.73 14,-4.53 -1.29,-11.93 -15.63,-10.91 -14,4.53z"/>
   <path class="fil11" d="M1911.22 1897.78c0,3.36 -0.16,7.37 0.03,10.65 0.22,3.82 1.34,5.07 5.46,4.51 2.5,-1.44 1.77,-9.49 1.77,-13.17 0,-6.88 1.63,-19.67 -3.91,-19.15 -4.77,0.45 -3.35,10.72 -3.35,17.16z"/>
   <path class="fil9" d="M1822.61 1897.78c0,3.21 -0.64,12.13 0.93,14.12 1.45,1.81 3.89,1.45 5.11,0.19 1.99,-2.04 1.1,-17.17 1.13,-21.61 0.04,-5.06 1.18,-9.94 -4.77,-9.66 -3.54,1.36 -2.4,11.31 -2.4,16.96z"/>
   <path class="fil12" d="M1886.38 1728.89c-8.76,-0.05 -12.29,19.97 -7.38,24.09 3.46,2.9 7.58,-5.76 8.41,-7.76 1.25,-2.97 -0.62,-11.83 -1.03,-16.33z"/>
   <path class="fil3" d="M1943.4 1897.43c-2.07,0.41 -7.24,1.45 -9.04,2.24 -7.11,3.1 -0.15,12.24 6.52,6.51 2.26,-1.95 2.31,-4.84 2.52,-8.75z"/>
   <path class="fil7" d="M1863.64 1907.49c7.86,1.33 9.75,-2.64 10.03,-10 -6.58,0.89 -15.64,2.31 -10.03,10z"/>
   <path class="fil13" d="M1796.92 1894.37l12.72 0.01c-0.99,-11.41 -12.19,-10.84 -12.72,-0.01z"/>
   <path class="fil4" d="M1748.72 1885.01c0,0 0,0 0,0z"/>
  </g>
 </g>
</svg>
